<svg id="visual" viewBox="0 0 960 540" width="960" height="540" xmlns="http://www.w3.org/2000/svg"
     xmlns:xlink="http://www.w3.org/1999/xlink" version="1.1">
    <rect x="0" y="0" width="960" height="540" fill="#312E81"></rect>
    <path d="M0 406L26.7 407C53.3 408 106.7 410 160 406C213.3 402 266.7 392 320 371.2C373.3 350.3 426.7 318.7 480 321.5C533.3 324.3 586.7 361.7 640 379.2C693.3 396.7 746.7 394.3 800 373.5C853.3 352.7 906.7 313.3 933.3 293.7L960 274L960 541L933.3 541C906.7 541 853.3 541 800 541C746.7 541 693.3 541 640 541C586.7 541 533.3 541 480 541C426.7 541 373.3 541 320 541C266.7 541 213.3 541 160 541C106.7 541 53.3 541 26.7 541L0 541Z"
          fill="#3730A3"></path>
    <path d="M0 391L26.7 400.3C53.3 409.7 106.7 428.3 160 440.8C213.3 453.3 266.7 459.7 320 460.2C373.3 460.7 426.7 455.3 480 445.7C533.3 436 586.7 422 640 425.3C693.3 428.7 746.7 449.3 800 447C853.3 444.7 906.7 419.3 933.3 406.7L960 394L960 541L933.3 541C906.7 541 853.3 541 800 541C746.7 541 693.3 541 640 541C586.7 541 533.3 541 480 541C426.7 541 373.3 541 320 541C266.7 541 213.3 541 160 541C106.7 541 53.3 541 26.7 541L0 541Z"
          fill="#4338CA"></path>
    <path d="M0 416L26.7 428.7C53.3 441.3 106.7 466.7 160 476.5C213.3 486.3 266.7 480.7 320 468C373.3 455.3 426.7 435.7 480 440.7C533.3 445.7 586.7 475.3 640 484.5C693.3 493.7 746.7 482.3 800 471.2C853.3 460 906.7 449 933.3 443.5L960 438L960 541L933.3 541C906.7 541 853.3 541 800 541C746.7 541 693.3 541 640 541C586.7 541 533.3 541 480 541C426.7 541 373.3 541 320 541C266.7 541 213.3 541 160 541C106.7 541 53.3 541 26.7 541L0 541Z"
          fill="#4F46E5"></path>
</svg>
